<svg width="50" height="50" viewBox="0 0 50 50" fill="none" xmlns="http://www.w3.org/2000/svg">
<path d="M25 46.875C12.9188 46.875 3.125 37.0812 3.125 25C3.125 12.9188 12.9188 3.125 25 3.125C37.0812 3.125 46.875 12.9188 46.875 25C46.875 37.0812 37.0812 46.875 25 46.875ZM25 50C38.8071 50 50 38.8071 50 25C50 11.1929 38.8071 0 25 0C11.1929 0 0 11.1929 0 25C0 38.8071 11.1929 50 25 50Z" fill="black"/>
<path d="M16.4222 18.0817C16.3985 18.5074 16.7497 18.8522 17.176 18.8522H19.7526C20.184 18.8522 20.5271 18.5004 20.5851 18.0728C20.8631 16.0224 22.2703 14.5279 24.7788 14.5279C26.9211 14.5279 28.885 15.5991 28.885 18.1778C28.885 20.1614 27.7146 21.0739 25.8698 22.4625C23.7672 23.9899 22.1009 25.7751 22.2199 28.6713L22.2292 29.3488C22.235 29.776 22.5831 30.1193 23.0104 30.1193H25.5448C25.9763 30.1193 26.3261 29.7695 26.3261 29.3381V29.0085C26.3261 26.767 27.179 26.1124 29.48 24.3668C31.3843 22.9187 33.368 21.312 33.368 17.9398C33.368 13.2187 29.3809 10.9375 25.0168 10.9375C21.0572 10.9375 16.7176 12.7832 16.4222 18.0817ZM21.2876 36.0901C21.2876 37.7563 22.6166 38.9862 24.4416 38.9862C26.3459 38.9862 27.6551 37.7563 27.6551 36.0901C27.6551 34.3643 26.3459 33.1543 24.4416 33.1543C22.6166 33.1543 21.2876 34.3643 21.2876 36.0901Z" fill="black"/>
</svg>
