<svg width="50" height="50" viewBox="0 0 50 50" fill="none" xmlns="http://www.w3.org/2000/svg">
<path d="M50 25C50 38.8071 38.8071 50 25 50C11.1929 50 0 38.8071 0 25C0 11.1929 11.1929 0 25 0C38.8071 0 50 11.1929 50 25ZM21.2207 15.916C20.7444 15.5759 20.118 15.5304 19.5975 15.7982C19.0771 16.066 18.75 16.6022 18.75 17.1875V32.8125C18.75 33.3978 19.0771 33.934 19.5975 34.2018C20.118 34.4697 20.7444 34.4242 21.2207 34.084L32.1582 26.2715C32.5688 25.9782 32.8125 25.5046 32.8125 25C32.8125 24.4954 32.5688 24.0218 32.1582 23.7285L21.2207 15.916Z" fill="black"/>
</svg>
