<svg width="50" height="50" viewBox="0 0 50 50" fill="none" xmlns="http://www.w3.org/2000/svg">
<circle cx="25" cy="25" r="25" fill="black"/>
<path d="M30.5625 21.2243V18.75H20.4375C16.7096 18.75 13.6875 21.7721 13.6875 25.5C13.6875 26.5791 13.9401 27.5969 14.3887 28.4995C14.5961 28.9168 14.4259 29.4232 14.0086 29.6306C13.5913 29.8379 13.0849 29.6678 12.8775 29.2505C12.3156 28.1197 12 26.8455 12 25.5C12 20.8401 15.7776 17.0625 20.4375 17.0625H30.5625V14.5882C30.5625 14.2305 30.9797 14.0351 31.2545 14.2641L35.2361 17.5821C35.4385 17.7508 35.4385 18.0617 35.2361 18.2303L31.2545 21.5483C30.9797 21.7773 30.5625 21.5819 30.5625 21.2243Z" fill="white"/>
<path d="M36.9914 21.3694C37.4087 21.162 37.9151 21.3322 38.1225 21.7495C38.6844 22.8802 39 24.1545 39 25.5C39 30.1599 35.2224 33.9375 30.5625 33.9375H20.4375V36.4118C20.4375 36.7694 20.0203 36.9648 19.7455 36.7358L15.7639 33.4178C15.5615 33.2492 15.5615 32.9383 15.7639 32.7696L19.7455 29.4516C20.0203 29.2226 20.4375 29.418 20.4375 29.7757V32.25H30.5625C34.2904 32.25 37.3125 29.2279 37.3125 25.5C37.3125 24.4208 37.0599 23.4031 36.6113 22.5005C36.4039 22.0832 36.5741 21.5768 36.9914 21.3694Z" fill="white"/>
</svg>
